<svg
  xmlns="http://www.w3.org/2000/svg"
  viewBox="0 0 24 24"
  fill="#FFBF00"
  width="48"
  height="48"
>
  <path d="M12 2c-1.1 0-2 .9-2 2v1c-.7-.3-1.5-.5-2.2-.2-.7.3-1.2 1-1.2 1.8v1c-.7-.3-1.5-.5-2.2-.2-.7.3-1.2 1-1.2 1.8v5c0 .8.5 1.5 1.2 1.8.7.3 1.5.1 2.2-.2v1c0 .8.5 1.5 1.2 1.8.7.3 1.5.1 2.2-.2v1c0 1.1.9 2 2 2s2-.9 2-2v-1c.7.3 1.5.5 2.2.2.7-.3 1.2-1 1.2-1.8v-1c.7.3 1.5.5 2.2.2.7-.3 1.2-1 1.2-1.8v-5c0-.8-.5-1.5-1.2-1.8-.7-.3-1.5-.1-2.2.2v-1c0-.8-.5-1.5-1.2-1.8-.7-.3-1.5-.1-2.2.2V4c0-1.1-.9-2-2-2zm-1 4c.3 0 .6.1.8.2.4.2.7.7.7 1.3v1c0 .6-.3 1.1-.7 1.3-.5.2-1 .1-1.3-.2-.4-.3-.5-.8-.5-1.2V7c0-.6.3-1.1.7-1.3.2-.1.5-.2.8-.2zm2 0c.3 0 .6.1.8.2.4.2.7.7.7 1.3v1c0 .6-.3 1.1-.7 1.3-.5.2-1 .1-1.3-.2-.4-.3-.5-.8-.5-1.2V7c0-.6.3-1.1.7-1.3.2-.1.5-.2.8-.2z"/>
</svg>