<?xml version="1.0" standalone="no"?>
<!DOCTYPE svg PUBLIC "-//W3C//DTD SVG 20010904//EN"
 "http://www.w3.org/TR/2001/REC-SVG-20010904/DTD/svg10.dtd">
<svg version="1.0" xmlns="http://www.w3.org/2000/svg"
 width="1060.000000pt" height="1060.000000pt" viewBox="0 0 1060.000000 1060.000000"
 preserveAspectRatio="xMidYMid meet">

<g transform="translate(0.000000,1060.000000) scale(0.100000,-0.100000)"
fill="#000000" stroke="none">
<path d="M5230 8670 c-236 -6 -271 -9 -465 -44 -434 -78 -930 -221 -1280 -368
-280 -119 -330 -147 -460 -264 -430 -386 -469 -426 -604 -627 -69 -104 -203
-377 -221 -452 -8 -33 -43 -116 -78 -185 -121 -238 -142 -312 -142 -503 0
-290 68 -574 172 -714 59 -80 369 -366 436 -401 126 -67 286 -87 619 -77 l241
6 99 -36 c54 -20 103 -42 109 -48 7 -7 21 -42 33 -78 47 -145 130 -243 281
-333 189 -112 487 -196 693 -196 140 1 231 35 422 159 60 39 115 71 123 71 7
0 37 -52 68 -117 135 -289 154 -321 353 -584 233 -307 362 -554 493 -939 38
-112 186 -584 227 -727 12 -39 28 -87 36 -106 l14 -34 140 31 c77 18 143 34
146 38 3 3 -51 200 -119 439 -68 239 -138 486 -155 549 -16 63 -40 151 -51
195 -69 261 -87 402 -57 449 22 33 42 33 114 0 138 -62 205 -79 366 -94 203
-19 474 17 686 92 163 58 232 102 283 183 18 28 33 52 35 54 1 2 38 9 81 16
151 24 288 101 407 226 117 125 180 297 157 432 -7 37 -21 85 -31 105 l-19 38
75 38 c56 29 87 54 124 98 105 127 179 257 221 388 21 70 23 91 23 300 -1 225
-17 466 -37 550 -6 25 -31 90 -55 145 -28 61 -62 166 -88 270 -84 336 -195
563 -411 845 -99 130 -177 202 -319 295 -95 62 -152 111 -275 232 l-155 154
-330 165 -330 164 -215 49 c-327 75 -459 99 -640 116 -36 3 -125 15 -198 25
-74 11 -168 19 -210 18 -43 -1 -192 -5 -332 -8z m523 -39 c78 -11 192 -25 252
-31 149 -15 308 -43 489 -86 244 -57 220 -58 -152 -4 -404 57 -802 123 -802
132 0 13 59 9 213 -11z m-593 -32 c-404 -90 -426 -93 -561 -79 -67 7 -115 16
-107 20 17 10 330 67 456 85 53 7 162 13 242 13 l145 1 -175 -40z m289 -11
l28 -32 -20 -60 c-52 -159 -181 -516 -186 -516 -5 0 -32 60 -187 430 -33 79
-48 126 -41 129 17 6 350 79 365 80 7 1 25 -13 41 -31z m381 -31 c146 -25 398
-64 560 -87 162 -23 296 -43 298 -45 2 -1 -43 -17 -100 -34 -57 -17 -212 -67
-346 -112 l-243 -80 -32 23 c-162 113 -487 371 -487 385 0 8 51 1 350 -50z
m-247 -75 c40 -33 140 -109 222 -171 83 -62 150 -115 150 -118 0 -2 -67 -24
-150 -48 -116 -34 -371 -128 -491 -181 -6 -3 20 84 58 193 39 109 84 240 101
291 17 50 33 92 35 92 2 0 36 -26 75 -58z m-553 -22 c15 -36 69 -163 119 -283
50 -120 91 -223 91 -228 0 -14 -24 -5 -145 48 -203 90 -354 166 -361 182 -4 9
-9 78 -12 153 l-4 137 27 7 c91 23 232 52 244 51 8 -1 27 -31 41 -67z m-460
31 c31 -6 23 -9 -75 -30 -61 -13 -126 -30 -145 -37 -19 -8 -65 -48 -102 -89
-38 -40 -132 -131 -210 -202 -78 -70 -154 -145 -170 -167 -35 -49 -165 -112
-256 -124 -72 -10 -80 -15 -61 -38 18 -22 21 -416 3 -434 -17 -17 -408 71
-412 93 -5 26 83 221 133 296 24 36 65 89 89 116 36 40 47 48 57 38 22 -22 32
-14 15 11 -15 24 -14 26 92 133 59 59 126 121 148 136 23 15 101 49 175 76 74
26 197 78 274 116 257 125 261 126 340 120 39 -4 86 -10 105 -14z m-495 -97
c-71 -35 -166 -75 -210 -90 -44 -15 -93 -33 -109 -41 l-29 -15 7 29 c11 42 29
57 102 82 82 30 334 100 354 100 8 -1 -43 -29 -115 -65z m615 -43 c0 -155 22
-272 74 -393 l16 -37 -78 -75 c-42 -41 -90 -93 -107 -115 -16 -22 -33 -41 -36
-41 -3 0 -4 58 -1 129 3 76 0 141 -6 159 -10 30 -132 205 -209 300 -47 59 -47
76 4 109 28 18 253 71 311 72 l32 1 0 -109z m2471 -83 l284 -143 31 -101 31
-102 -106 -47 c-128 -57 -233 -85 -317 -85 -74 0 -55 -41 -154 332 -73 281
-75 288 -62 288 5 0 137 -64 293 -142z m-646 -96 c-234 -232 -484 -475 -632
-617 -52 -48 -83 -72 -83 -62 0 21 217 668 228 679 11 11 210 79 431 147 248
77 254 79 271 80 9 1 -88 -101 -215 -227z m406 -132 l68 -245 -27 -22 c-56
-46 -322 -243 -328 -243 -7 0 -2 31 37 220 32 154 135 595 145 620 7 18 16 -9
105 -330z m-157 278 c-4 -24 -22 -108 -41 -188 -18 -80 -58 -257 -88 -395 -47
-220 -72 -306 -208 -715 -85 -256 -178 -541 -207 -635 -29 -93 -56 -173 -60
-178 -3 -4 -7 28 -8 70 -1 43 -7 228 -13 412 -12 354 -10 398 20 466 16 36 29
49 78 73 32 16 82 37 111 47 29 9 52 19 50 21 -6 5 -119 -23 -160 -40 -50 -21
-53 -20 -32 12 30 45 246 401 297 487 42 74 50 98 91 285 l44 205 63 58 c34
31 63 57 65 57 3 0 1 -19 -2 -42z m-3064 -42 c-8 -24 -35 -56 -90 -102 -44
-37 -107 -98 -140 -135 -34 -38 -67 -69 -74 -69 -21 0 -223 85 -227 95 -1 6
44 34 102 63 107 54 431 192 437 187 2 -2 -1 -20 -8 -39z m672 -86 c47 -63
102 -140 123 -170 l37 -55 -5 -115 c-3 -63 -12 -191 -18 -283 l-12 -168 -31 6
c-120 24 -513 128 -522 138 -6 6 -23 41 -37 77 -21 54 -26 85 -29 189 l-3 124
200 193 c110 106 203 190 206 186 4 -4 45 -59 91 -122z m2185 -180 c-33 -159
-37 -169 -94 -265 -72 -119 -234 -383 -274 -443 -15 -24 -30 -49 -32 -55 -2
-7 -74 35 -167 97 l-164 110 380 372 c208 205 380 367 382 360 1 -6 -13 -86
-31 -176z m-681 -179 c-61 -182 -115 -333 -119 -337 -3 -4 -48 27 -99 68 -125
101 -173 134 -307 209 -62 35 -116 70 -119 77 -10 28 34 64 128 103 238 99
556 207 611 209 13 0 -6 -66 -95 -329z m-1050 257 c38 -17 71 -33 73 -34 5 -4
-81 -104 -89 -104 -9 0 -44 80 -58 133 -6 20 -7 37 -2 37 4 0 39 -14 76 -32z
m2864 -201 c0 -4 -8 -4 -17 2 -10 5 -44 14 -75 21 -34 8 -60 19 -64 29 -11 28
-54 154 -54 160 0 3 47 -41 105 -99 58 -58 105 -108 105 -113z m-2568 67 c42
-19 82 -34 88 -34 8 0 9 -7 5 -17 -18 -45 -24 -90 -35 -258 -7 -99 -15 -200
-19 -224 l-6 -45 -245 -47 c-135 -26 -258 -48 -275 -48 -22 -1 -37 7 -56 32
-49 62 -51 71 -44 194 7 114 7 114 48 166 22 29 111 122 196 207 l156 155 55
-23 c30 -13 89 -39 132 -58z m-1865 36 c128 -49 126 -44 53 -136 -62 -78 -142
-228 -179 -335 l-18 -54 -79 -6 c-91 -7 -89 -6 -242 -106 -119 -77 -171 -107
-177 -101 -4 4 157 246 414 626 118 174 95 163 228 112z m-224 -47 c-52 -82
-428 -640 -437 -651 -13 -14 -5 115 14 215 16 87 3 72 345 381 50 45 91 82 93
82 1 0 -5 -12 -15 -27z m811 -75 c3 -13 6 -60 6 -106 0 -65 5 -96 25 -144 28
-69 31 -88 12 -88 -17 0 -233 -87 -262 -106 l-22 -14 -6 142 c-4 79 -7 166 -7
194 l0 51 48 14 c26 7 79 28 117 46 39 18 73 32 76 33 4 0 9 -10 13 -22z
m3788 3 c91 -31 169 -72 166 -86 -2 -8 -77 -94 -168 -192 -119 -129 -170 -177
-185 -176 -163 16 -331 37 -337 42 -9 8 -79 283 -74 289 3 2 40 8 83 13 86 11
213 51 313 98 76 36 123 39 202 12z m-2278 -132 c119 -67 215 -132 313 -215
60 -52 61 -53 35 -58 -15 -3 -130 -22 -257 -41 -126 -20 -236 -38 -243 -40
-10 -4 -11 7 -7 43 4 40 25 337 25 363 0 18 25 8 134 -52z m2611 -52 c33 -22
92 -72 130 -112 118 -121 349 -455 315 -455 -7 0 -75 20 -153 44 -297 93 -526
165 -639 203 l-118 38 168 181 167 182 35 -21 c19 -11 62 -39 95 -60z m-959
36 c6 -28 211 -813 220 -844 3 -12 -22 -33 -93 -76 -382 -234 -367 -226 -375
-206 -8 21 -118 824 -118 865 0 22 18 41 108 110 126 99 234 177 244 178 4 0
10 -12 14 -27z m-4431 -215 c-6 -23 -47 -105 -91 -183 -12 -21 -27 -41 -33
-43 -7 -2 2 18 18 45 17 28 37 67 45 89 14 41 55 114 63 114 2 0 1 -10 -2 -22z
m1374 -161 c19 -83 36 -163 39 -176 l5 -24 -134 7 c-74 3 -178 9 -232 13 l-99
6 7 46 c3 25 18 71 33 101 25 50 33 58 102 92 76 38 202 86 230 87 11 1 23
-37 49 -152z m278 85 l271 -67 36 -45 c20 -25 36 -48 36 -51 0 -4 -17 -10 -37
-13 -21 -4 -141 -30 -266 -58 -126 -27 -232 -46 -237 -42 -14 16 -89 345 -77
344 1 0 124 -31 274 -68z m1152 -370 c-206 -207 -387 -390 -402 -407 -34 -38
-35 -21 -3 71 13 38 65 191 116 339 51 149 96 274 101 280 10 10 550 105 558
98 3 -2 -164 -173 -370 -381z m1295 -102 c52 -369 54 -396 38 -408 -9 -7 -61
-36 -115 -65 -68 -35 -138 -84 -224 -157 -205 -173 -198 -167 -189 -145 4 11
48 144 98 295 119 365 207 632 271 815 l52 150 7 -45 c4 -25 32 -223 62 -440z
m-4171 453 c-8 -23 -82 -133 -89 -133 -6 0 -5 2 49 88 39 63 52 77 40 45z
m643 -68 c47 -105 65 -155 56 -155 -18 0 -424 30 -481 36 l-64 6 139 90 c76
50 150 95 164 99 14 4 53 7 88 6 l63 -2 35 -80z m4160 65 c81 -11 151 -23 155
-27 4 -5 40 -84 79 -178 40 -93 88 -206 107 -249 l34 -80 -61 -60 -60 -61
-143 49 c-78 27 -145 52 -149 55 -4 3 -39 128 -78 276 -39 149 -73 276 -75
283 -6 16 16 16 191 -8z m-4007 -26 c64 -14 142 -30 174 -36 51 -10 57 -14 50
-32 -4 -12 -12 -48 -18 -80 l-11 -60 -119 3 c-66 1 -123 5 -126 9 -5 6 -79
174 -95 217 -6 15 -4 17 11 11 10 -4 71 -18 134 -32z m2544 -61 c93 -165 153
-250 205 -290 l49 -38 6 -155 c17 -395 20 -670 8 -670 -39 0 -496 260 -729
415 l-72 48 -162 -7 -163 -7 135 138 c360 367 655 663 661 663 4 0 32 -44 62
-97z m-3323 7 c-17 -34 -33 -60 -36 -57 -3 2 10 35 28 71 18 37 34 63 36 57 2
-5 -11 -37 -28 -71z m3485 -31 l133 -91 -14 -47 c-8 -25 -19 -64 -25 -86 l-11
-40 -57 60 c-44 48 -169 243 -190 298 -7 19 30 -2 164 -94z m1805 -26 l185
-59 61 -149 c33 -83 109 -244 168 -358 60 -114 107 -210 105 -212 -2 -1 -107
32 -234 75 -126 43 -289 98 -362 122 -73 24 -132 47 -133 51 0 5 26 36 58 69
l58 60 -97 227 c-53 124 -100 236 -103 248 l-7 21 58 -18 c32 -10 141 -45 243
-77z m-2660 63 c0 -2 -36 -108 -81 -237 -44 -129 -96 -279 -115 -334 -19 -55
-36 -105 -38 -112 -3 -7 -121 53 -298 151 -161 89 -353 195 -427 236 -122 67
-132 74 -110 83 40 15 363 84 709 152 313 61 360 69 360 61z m-2621 -45 c-6
-18 -13 -30 -15 -28 -2 2 1 18 7 36 6 18 13 30 15 28 2 -2 -1 -18 -7 -36z m21
-8 c-11 -17 -11 -17 -6 0 3 10 6 24 7 30 0 9 2 9 5 0 3 -7 0 -20 -6 -30z m-46
-46 c22 -7 41 -17 43 -23 3 -10 -72 -82 -244 -233 -40 -35 -73 -61 -73 -57 0
11 82 190 107 235 54 94 77 105 167 78z m321 -47 c77 -6 194 -15 260 -21 66
-5 185 -14 265 -19 80 -5 146 -9 148 -9 1 -1 2 -116 2 -256 l0 -254 -41 -11
c-30 -8 -58 -28 -98 -71 -31 -32 -60 -59 -64 -59 -4 0 -49 23 -100 52 -50 28
-93 52 -94 53 -1 0 2 45 8 98 l10 98 -41 102 c-27 65 -45 131 -51 182 -14 109
-23 110 -14 0 4 -62 17 -122 42 -193 34 -101 35 -104 24 -184 -6 -45 -11 -85
-11 -90 0 -13 -44 -9 -67 7 -18 13 -77 83 -269 322 -53 66 -120 192 -131 245
l-6 31 44 -7 c24 -3 107 -11 184 -16z m5434 -60 c90 -28 168 -53 172 -56 9 -5
7 -36 -27 -318 -14 -114 -29 -218 -33 -229 -6 -16 -27 16 -103 164 -142 273
-153 296 -186 389 -17 47 -33 93 -37 102 -6 15 -3 16 21 8 16 -5 103 -32 193
-60z m-5708 -225 c-47 -440 -62 -575 -78 -695 -9 -69 -18 -126 -19 -128 -1 -3
-225 136 -359 223 -33 22 -61 40 -63 41 -7 4 20 47 97 154 43 59 123 179 177
267 53 87 134 212 178 278 98 145 97 148 67 -140z m1294 218 c72 -4 133 -6
138 -5 4 1 7 -4 7 -12 0 -12 -169 -598 -174 -604 -2 -1 -39 20 -83 46 -45 27
-103 54 -129 61 -27 7 -55 15 -61 17 -10 3 -13 63 -13 260 l0 256 93 -6 c50
-3 151 -9 222 -13z m-1410 -100 c-24 -38 -72 -113 -106 -168 -93 -149 -301
-466 -305 -462 -2 1 4 32 13 67 15 56 175 391 206 428 6 8 52 48 102 90 49 42
99 84 109 94 11 10 21 18 23 18 1 0 -17 -30 -42 -67z m376 -230 c78 -98 147
-183 152 -190 10 -13 -8 -35 -250 -309 -113 -128 -220 -231 -229 -222 -1 2 2
24 6 50 16 82 39 274 70 573 16 160 33 314 36 343 l7 53 32 -60 c18 -34 97
-141 176 -238z m1313 248 c28 -16 206 -114 396 -219 190 -105 353 -197 363
-204 16 -12 11 -22 -64 -128 -44 -63 -109 -173 -144 -245 -35 -71 -70 -139
-78 -149 -13 -18 -25 -13 -249 105 -129 68 -244 131 -256 139 -20 15 -20 16
-4 85 25 108 22 379 -6 515 -23 112 -26 130 -16 130 4 0 30 -13 58 -29z m-74
-113 c31 -163 36 -295 16 -437 -9 -63 -18 -116 -21 -119 -6 -6 -184 69 -195
83 -8 9 19 110 142 523 11 39 24 72 28 72 3 0 17 -55 30 -122z m4470 -163 c29
-99 58 -207 66 -241 15 -69 57 -456 52 -478 -2 -8 -58 77 -125 188 l-122 201
29 200 c15 110 31 226 35 258 4 32 8 57 10 55 1 -1 26 -84 55 -183z m46 18
c14 -49 41 -146 59 -218 18 -71 49 -167 69 -212 52 -118 53 -131 20 -218 -16
-41 -31 -75 -34 -75 -3 0 -14 78 -24 173 -26 251 -32 286 -81 461 -25 88 -45
163 -45 168 0 25 12 -1 36 -79z m-1269 -78 c81 -177 92 -140 -108 -341 -96
-96 -178 -174 -184 -174 -5 0 -58 42 -116 94 -105 93 -106 94 -112 147 -14
118 -26 102 164 219 204 126 281 170 294 170 6 0 33 -52 62 -115z m216 28 c12
-6 -1 -24 -54 -82 l-69 -73 -40 85 c-21 46 -45 101 -54 120 l-15 36 109 -39
c60 -21 115 -42 123 -47z m322 -109 c138 -47 253 -89 257 -92 7 -8 91 -753 84
-759 -6 -6 -127 56 -336 173 l-185 103 -125 251 -125 250 80 80 c44 44 84 80
90 80 6 0 123 -39 260 -86z m-2495 -44 c25 -17 114 -74 198 -126 83 -53 152
-98 152 -100 0 -20 -65 -123 -155 -244 -59 -79 -113 -156 -120 -171 -11 -21
-28 -30 -80 -44 -39 -11 -69 -14 -74 -9 -7 8 -72 163 -214 514 -19 47 -44 107
-56 134 -12 27 -19 52 -15 55 3 3 63 9 132 12 70 3 141 6 157 7 19 1 46 -9 75
-28z m-1821 -62 c0 -46 -6 -121 -12 -168 l-12 -85 -70 -52 c-84 -62 -138 -121
-162 -175 -12 -27 -22 -38 -33 -34 -8 2 -46 16 -85 30 -38 14 -82 26 -97 26
-16 0 -28 3 -28 7 0 15 335 436 387 484 41 39 55 47 91 48 21 1 22 -2 21 -81z
m140 36 c54 -24 151 -90 151 -103 0 -8 -270 -165 -275 -159 -2 2 0 33 5 68 5
36 10 103 10 149 l0 83 28 -7 c15 -3 51 -17 81 -31z m1278 24 c11 -15 294
-710 291 -713 -2 -1 -65 -19 -141 -39 l-138 -37 -48 35 c-27 20 -74 65 -106
101 -33 38 -82 80 -118 101 -34 20 -64 38 -66 39 -2 2 13 30 32 62 19 32 51
93 70 135 33 73 195 327 208 328 4 0 11 -6 16 -12z m-1857 -11 c40 -13 200
-99 200 -107 0 -3 -32 -45 -71 -94 -39 -48 -164 -208 -277 -354 -251 -326
-285 -369 -314 -406 l-24 -28 -17 93 c-10 52 -32 154 -49 226 l-32 133 45 37
c57 49 76 70 287 310 123 141 183 203 197 202 11 0 36 -6 55 -12z m3664 -99
c4 -29 10 -63 12 -75 7 -28 -13 -39 -276 -138 -113 -42 -213 -81 -223 -87 -49
-26 -16 10 111 118 97 83 170 136 243 176 57 32 109 58 115 58 6 0 15 -24 18
-52z m874 -430 c-2 -6 -55 -56 -118 -113 l-113 -102 -121 121 c-67 67 -147
144 -179 171 l-59 50 179 178 178 177 118 -236 c65 -130 116 -241 115 -246z
m598 456 c101 -38 134 -55 134 -69 0 -33 -133 -556 -140 -548 -4 4 -13 53 -19
108 -17 139 -61 518 -61 528 0 11 13 9 86 -19z m-4286 -115 c120 -55 602 -314
607 -326 3 -7 -11 -38 -30 -70 -19 -32 -47 -82 -61 -111 -26 -51 -28 -53 -59
-46 -78 16 -599 200 -661 232 -79 41 -172 126 -182 166 -3 15 -5 28 -3 30 2 2
67 40 144 85 153 89 141 87 245 40z m4584 -208 c69 -115 126 -216 126 -225 0
-9 -13 -42 -29 -74 -69 -137 -168 -378 -236 -574 -41 -116 -77 -214 -82 -219
-5 -5 -10 17 -11 49 -2 48 -36 383 -58 567 -5 41 7 100 65 335 72 287 89 350
96 350 2 0 60 -94 129 -209z m-2546 36 c78 -39 142 -74 142 -77 0 -3 -151 -51
-335 -106 -184 -55 -335 -98 -335 -95 0 4 45 67 101 141 55 74 119 165 141
202 l40 67 51 -30 c29 -17 116 -62 195 -102z m920 40 c50 -43 92 -81 92 -85 0
-3 -82 -89 -183 -191 l-183 -186 -96 -170 c-53 -93 -103 -185 -113 -203 -9
-19 -18 -32 -20 -30 -10 10 -192 724 -186 730 3 3 107 45 231 92 124 47 252
96 285 110 33 13 64 22 70 18 5 -3 52 -41 103 -85z m-4701 -38 c72 -46 165
-105 205 -130 l73 -45 18 -75 c28 -111 77 -351 77 -373 0 -17 -6 -18 -92 -11
-51 4 -142 10 -203 14 l-110 6 -23 170 c-19 140 -76 441 -99 519 -7 26 0 23
154 -75z m1341 -18 c26 -47 92 -109 155 -145 41 -24 48 -34 66 -89 36 -111 76
-297 64 -297 -22 0 -533 313 -533 327 0 19 26 70 57 111 22 30 149 131 164
132 3 0 15 -17 27 -39z m-1487 -87 c20 -71 74 -422 65 -431 -6 -6 -51 136 -65
207 -6 30 -15 102 -21 159 -16 168 -13 180 21 65z m6733 -16 c11 -125 27 -420
23 -424 -2 -3 -30 64 -61 147 l-58 152 38 98 c22 55 42 99 45 99 3 0 9 -33 13
-72z m-1659 -33 c54 -44 131 -118 172 -165 l74 -85 -133 -128 c-73 -71 -147
-140 -165 -153 -45 -36 -471 -162 -604 -180 -50 -7 -52 -6 -47 14 3 12 55 108
114 214 l109 193 184 188 c102 103 188 186 192 185 4 -2 51 -39 104 -83z
m-1008 21 c-3 -7 -71 -115 -152 -239 -134 -207 -148 -225 -168 -218 -12 5
-108 49 -213 99 -105 50 -209 98 -230 107 -30 13 -36 18 -24 25 14 8 718 221
789 239 2 1 1 -5 -2 -13z m72 -48 c7 -29 19 -75 27 -103 28 -99 144 -550 144
-562 0 -14 -15 -7 -305 131 -119 56 -199 99 -197 107 5 19 303 479 311 479 4
0 13 -24 20 -52z m-3053 -19 c34 -11 162 -79 285 -151 123 -72 265 -155 314
-184 l90 -52 3 -97 c3 -118 0 -125 -100 -191 -73 -49 -74 -49 -148 -47 -106 4
-169 19 -301 73 -126 52 -205 76 -468 144 -95 25 -175 47 -178 49 -2 3 38 58
90 123 51 66 135 174 186 242 l93 122 37 -6 c20 -3 64 -14 97 -25z m1561 -24
c36 -22 103 -92 103 -109 0 -3 -13 -6 -28 -6 -25 0 -219 -31 -281 -46 -30 -6
-27 0 42 123 l52 91 35 -14 c19 -8 54 -26 77 -39z m2967 -105 c9 -63 22 -175
29 -247 l13 -132 -24 22 c-13 12 -78 79 -143 148 l-119 127 62 60 c80 76 159
144 164 140 1 -2 10 -55 18 -118z m147 52 c68 -38 183 -99 254 -137 72 -37
131 -69 133 -70 10 -8 72 -655 62 -655 -3 0 -34 36 -70 81 -102 127 -196 211
-290 258 -46 23 -100 44 -121 47 -42 7 -39 -3 -54 179 -6 69 -31 283 -40 338
-2 15 -3 27 -1 27 2 0 59 -31 127 -68z m-3714 -43 c337 -113 317 -111 528 -68
150 31 193 29 250 -8 26 -17 43 -33 39 -36 -30 -18 -315 -88 -394 -97 -337
-38 -393 -56 -567 -181 -45 -32 -84 -59 -88 -59 -3 0 -3 22 1 48 9 70 -13 248
-47 379 -31 122 -31 123 -25 123 2 0 138 -45 303 -101z m4577 -224 c-6 -93
-10 -106 -55 -200 -37 -77 -72 -128 -151 -222 -57 -67 -104 -120 -105 -119
-12 12 129 395 207 566 34 74 69 151 78 170 l16 35 8 -65 c4 -36 5 -110 2
-165z m-3464 147 c0 -11 -610 -639 -908 -936 l-221 -219 -37 6 c-43 7 -144 54
-144 67 0 13 501 765 555 833 25 32 56 62 68 67 12 5 99 29 192 54 94 25 238
66 320 90 159 48 175 51 175 38z m341 -109 c137 -64 249 -120 249 -124 0 -11
-279 -426 -376 -560 l-89 -121 -7 223 c-4 123 -15 323 -23 444 -17 245 -17
255 -9 255 3 0 118 -53 255 -117z m2046 -133 c89 -97 94 -105 77 -118 -174
-125 -231 -162 -250 -162 -41 0 -124 39 -214 100 -48 33 -95 69 -105 80 -22
24 -28 17 170 199 l120 110 54 -52 c29 -29 96 -99 148 -157z m1164 109 c21
-50 41 -106 45 -124 8 -44 -10 -156 -40 -245 -42 -124 -186 -334 -268 -390
-29 -20 -27 -17 13 26 59 62 131 187 164 284 33 96 49 275 40 435 -3 66 -3
116 1 112 4 -4 24 -48 45 -98z m-3487 -114 c8 -110 18 -307 22 -437 l6 -237
-23 -6 c-87 -21 -774 -155 -781 -153 -10 4 149 236 389 565 196 271 360 480
369 470 1 -1 9 -92 18 -202z m-862 -2 c-16 -21 -142 -208 -281 -415 -138 -208
-256 -378 -261 -378 -15 0 -52 59 -66 107 -8 26 -14 85 -14 132 0 75 4 94 30
150 48 101 178 226 335 322 67 41 245 118 273 119 9 0 2 -15 -16 -37z m541
-120 c-133 -185 -356 -496 -450 -629 l-72 -101 -151 -52 c-83 -29 -154 -51
-156 -48 -17 17 77 120 480 524 248 249 452 453 453 453 1 0 -46 -66 -104
-147z m-2559 107 c199 -15 186 -9 186 -78 0 -31 -3 -101 -7 -154 l-6 -97 -121
112 c-67 62 -150 138 -186 170 -76 67 -87 63 134 47z m3606 -60 c84 -39 198
-94 253 -122 90 -45 99 -52 77 -58 -47 -13 -385 -153 -573 -237 -197 -87 -357
-154 -357 -148 0 2 37 54 81 117 45 62 142 204 217 316 75 111 139 202 143
202 4 0 76 -32 159 -70z m2659 -1 c-22 -67 -51 -123 -85 -164 -48 -59 -42 -70
8 -15 l41 45 -37 -53 c-43 -62 -46 -74 -8 -41 l27 24 -22 -25 c-11 -14 -37
-53 -57 -87 -20 -34 -41 -65 -46 -68 -5 -3 4 17 22 45 46 74 28 72 -21 -3 -22
-35 -55 -76 -72 -93 -26 -24 -23 -18 13 31 56 75 120 176 115 181 -2 2 -34
-40 -71 -94 -72 -104 -126 -172 -126 -157 1 6 14 26 30 45 43 49 37 61 -6 14
l-36 -39 21 35 c11 19 31 42 45 50 38 23 246 311 246 341 0 19 21 71 26 66 2
-2 -1 -19 -7 -38z m-5783 -33 c117 -30 261 -74 320 -97 212 -81 240 -91 298
-103 l60 -12 -120 -27 c-204 -48 -415 -53 -492 -13 -36 19 -179 165 -281 289
-8 9 -10 17 -5 17 5 0 104 -25 220 -54z m-99 -141 l91 -101 -61 0 c-42 1 -82
-7 -125 -23 -43 -16 -66 -21 -73 -14 -7 7 -8 65 -3 169 l7 158 36 -44 c20 -24
77 -90 128 -145z m-368 11 c83 -76 151 -143 151 -148 0 -5 -74 59 -165 143
-91 84 -165 154 -165 156 0 11 42 -24 179 -151z m4731 89 c81 -66 174 -119
242 -139 l37 -12 -154 -114 c-85 -63 -163 -116 -173 -118 -26 -4 -172 55 -431
174 -191 88 -211 100 -185 106 16 4 87 21 158 39 94 23 388 112 423 128 1 1
39 -28 83 -64z m-3096 33 c-74 -56 -151 -127 -186 -171 -44 -57 -52 -49 -9 9
44 60 189 184 215 184 5 0 -4 -10 -20 -22z m3713 -41 c15 -13 51 -39 78 -57
105 -71 414 -340 391 -340 -4 0 -24 9 -45 20 -52 26 -253 86 -338 101 -37 6
-99 23 -138 37 -69 24 -225 98 -225 106 0 6 129 98 180 129 55 33 61 33 97 4z
m180 -52 c47 -28 158 -134 223 -215 l45 -55 -80 71 c-44 39 -127 108 -185 154
-58 45 -109 87 -115 92 -14 14 62 -18 112 -47z m703 -53 c0 -5 -7 -17 -15 -28
-14 -18 -14 -17 -4 9 12 27 19 34 19 19z m-2232 -99 c30 -135 29 -164 -8 -201
-62 -62 -249 -118 -481 -143 -86 -9 -135 -8 -279 5 -96 10 -186 19 -199 22
-18 4 22 26 165 90 298 134 745 322 770 323 6 1 20 -43 32 -96z m347 -70 c121
-55 231 -105 245 -111 20 -10 -26 -11 -220 -8 -135 3 -258 9 -275 14 -29 8
-31 13 -51 108 -11 54 -24 111 -27 127 l-8 28 58 -29 c32 -16 157 -74 278
-129z m819 66 l107 -51 -168 -43 c-92 -24 -184 -50 -203 -58 -36 -16 -159 -41
-166 -35 -2 3 20 22 49 44 28 21 97 74 152 117 55 42 105 77 111 77 6 0 60
-23 118 -51z m1011 4 c-15 -27 -34 -55 -43 -63 -14 -13 8 27 46 88 27 41 24
22 -3 -25z m-5690 -33 c38 -11 88 -20 110 -21 22 0 49 -4 60 -9 39 -17 -61
-11 -167 10 -57 11 -119 20 -138 20 -26 0 -31 3 -20 10 24 15 79 12 155 -10z
m5635 -54 c0 -2 -8 -10 -17 -17 -16 -13 -17 -12 -4 4 13 16 21 21 21 13z
m-667 -36 c53 -16 43 -20 -18 -9 -28 6 -84 14 -125 19 l-75 9 90 -4 c50 -2
107 -9 128 -15z m-63 -20 c14 -4 -40 -8 -130 -9 -85 -1 -173 -6 -195 -11 -22
-5 -51 -9 -65 -9 -23 1 -23 1 5 10 73 23 331 36 385 19z m199 -26 c2 -2 -7 -4
-22 -4 -14 0 -29 5 -32 10 -6 10 42 4 54 -6z m-99 -13 c26 -4 -42 -7 -165 -8
-124 -1 -202 2 -190 7 24 10 291 11 355 1z m108 -18 c-10 -2 -26 -2 -35 0 -10
3 -2 5 17 5 19 0 27 -2 18 -5z m-138 -12 c34 -7 -3 -9 -150 -10 -107 0 -200 3
-206 7 -17 11 304 14 356 3z m-1110 -11 c72 0 119 -4 110 -9 -8 -5 -84 -14
-169 -21 -85 -6 -160 -14 -167 -17 -7 -2 -17 5 -23 16 -22 40 -15 44 57 38 37
-4 123 -7 192 -7z m715 -37 l80 -8 -75 -6 c-41 -4 -125 -7 -186 -8 -102 -1
-112 1 -130 20 l-19 22 125 -6 c69 -4 161 -10 205 -14z m-587 2 c-3 -3 -65
-14 -139 -24 -229 -32 -229 -32 -229 -17 0 10 17 16 53 20 211 23 325 30 315
21z m-418 -14 c0 -10 -108 -26 -117 -17 -7 6 54 24 90 25 15 1 27 -3 27 -8z
m493 -12 c-84 -24 -418 -78 -427 -69 -6 6 -6 13 0 19 9 9 370 59 429 59 l30 0
-32 -9z m177 1 c19 -12 8 -15 -87 -29 -106 -16 -116 -12 -38 14 79 26 103 29
125 15z m475 -19 c28 -7 26 -8 -20 -14 -27 -3 -107 -12 -177 -18 -119 -12
-128 -11 -155 7 l-28 18 30 7 c40 9 312 9 350 0z m-1132 -16 c-3 -14 -39 -23
-102 -24 -42 -1 -52 2 -44 10 24 24 150 36 146 14z m1427 6 c-32 -18 -202 -60
-347 -86 l-152 -28 -46 31 -47 31 36 6 c29 6 489 50 551 53 16 1 17 0 5 -7z
m165 -1 c3 -5 1 -10 -6 -10 -6 0 -50 -17 -98 -39 -121 -54 -250 -95 -363 -115
-86 -16 -99 -16 -125 -2 -16 8 -35 22 -42 30 -11 14 -11 16 5 16 11 0 71 9
134 21 105 19 185 39 370 90 74 20 116 23 125 9z m-852 -23 l27 -23 -172 -22
c-95 -13 -199 -28 -231 -34 -32 -6 -60 -9 -62 -6 -13 13 93 71 144 79 205 33
259 34 294 6z m-363 8 c0 -13 -67 -35 -174 -60 -115 -25 -146 -27 -146 -6 0
13 46 25 185 50 123 22 135 23 135 16z m1285 -5 c19 -8 19 -9 -5 -16 -14 -4
-88 -39 -165 -77 -162 -80 -211 -100 -305 -126 l-69 -19 -35 26 c-19 15 -35
29 -36 32 0 3 43 13 95 23 111 20 206 52 360 118 115 50 127 53 160 39z
m-2584 -31 c135 -15 218 -19 312 -16 71 3 127 4 125 2 -12 -13 -178 -37 -283
-42 -92 -4 -139 -2 -205 12 -94 19 -160 42 -160 56 0 12 0 12 211 -12z m939
11 c0 -17 -48 -30 -111 -30 -75 0 -77 17 -1 25 31 4 62 8 67 10 21 7 45 5 45
-5z m-1245 -35 c-98 -83 -399 -234 -484 -243 -50 -4 -154 19 -210 48 -34 17
-92 70 -78 70 4 0 102 21 219 46 117 25 272 56 343 70 72 14 148 29 170 33 78
17 84 13 40 -24z m2970 26 c3 -5 -10 -15 -29 -21 -19 -6 -74 -36 -123 -67
-120 -76 -187 -109 -290 -144 -48 -16 -89 -29 -92 -29 -3 0 -22 10 -41 21
l-34 21 74 19 c40 11 153 57 249 103 206 99 271 121 286 97z m-903 -43 l51
-33 -54 -7 c-30 -4 -123 -14 -208 -23 -84 -9 -199 -25 -254 -36 -86 -18 -106
-19 -146 -8 -25 6 -50 14 -54 17 -14 7 65 39 128 52 66 14 430 68 464 69 13 1
46 -14 73 -31z m-823 -10 c-10 -18 -17 -20 -56 -14 -25 3 -55 6 -66 6 -38 0
-6 15 56 26 72 12 81 10 66 -18z m254 13 c-64 -40 -213 -76 -213 -53 0 18 21
26 125 49 125 27 127 27 88 4z m1527 14 c0 -3 -11 -10 -24 -15 -13 -5 -80 -47
-148 -93 -145 -99 -204 -130 -287 -153 -57 -16 -61 -16 -87 1 l-27 17 84 28
c109 35 144 52 256 122 51 32 114 67 140 78 46 18 93 26 93 15z m-20 -61 c-66
-67 -362 -244 -409 -244 -14 0 -20 -4 -15 -12 4 -7 3 -8 -5 -4 -6 4 -9 12 -6
17 4 5 -1 9 -10 9 -26 0 -8 17 26 24 48 9 144 61 249 134 98 68 188 122 205
122 5 0 -11 -20 -35 -46z m65 6 c-10 -11 -22 -20 -28 -20 -5 0 1 9 14 20 31
25 37 25 14 0z m-2065 -9 c-8 -5 -62 -18 -120 -31 -84 -17 -289 -78 -369 -108
-34 -13 4 20 49 43 62 31 176 63 310 85 125 21 152 23 130 11z m1209 -55 l55
-41 -345 -6 c-259 -4 -350 -3 -368 6 -23 12 -23 13 -5 18 88 26 573 81 599 68
6 -3 34 -23 64 -45z m-1121 39 c-2 -3 -65 -23 -139 -44 -74 -22 -192 -60 -263
-85 -135 -48 -176 -56 -176 -32 0 19 176 87 295 115 50 12 117 28 150 35 59
14 143 21 133 11z m84 -20 c-4 -14 -507 -183 -569 -191 -128 -16 -24 34 250
121 257 81 326 96 319 70z m1918 1 c0 -8 -143 -94 -175 -106 -41 -16 -31 -8
71 55 84 51 104 61 104 51z m35 -30 c-8 -12 -30 -30 -48 -39 -48 -23 -154 -67
-161 -67 -13 0 -201 -91 -216 -105 -8 -7 -28 -16 -45 -20 -24 -6 -19 1 30 34
60 41 84 52 290 132 60 24 120 54 135 66 32 28 34 28 15 -1z m-1921 1 c-10
-28 -93 -68 -252 -121 -102 -34 -194 -58 -237 -62 -96 -9 -77 4 85 59 74 25
194 66 265 91 146 51 146 51 139 33z m105 -1 c-12 -10 -60 -16 -54 -6 3 5 18
10 32 10 15 0 24 -2 22 -4z m-18 -42 c-75 -25 -102 -26 -59 -3 28 15 75 27
108 27 14 0 -8 -11 -49 -24z m179 -1 c38 -15 68 -28 67 -29 -1 -2 -50 -10
-107 -19 -58 -10 -145 -26 -194 -36 -103 -22 -131 -24 -101 -8 11 6 36 22 55
34 19 13 68 33 108 45 39 13 72 27 72 31 0 15 28 10 100 -18z m1664 12 c-4 -9
-33 -31 -66 -50 -64 -38 -73 -41 -62 -24 4 7 3 10 -2 7 -5 -2 -38 -18 -74 -34
-36 -17 -107 -54 -158 -83 -92 -51 -112 -59 -112 -43 0 8 338 182 354 182 4 0
4 -4 1 -10 -13 -21 8 -10 95 51 31 22 31 22 24 4z m-3970 -26 c20 -16 24 -24
15 -29 -8 -6 -3 -13 17 -24 34 -18 92 -66 81 -66 -4 0 -35 19 -69 42 -34 23
-84 50 -111 59 -27 9 -44 20 -38 23 6 4 32 -2 57 -14 56 -24 69 -19 23 9 -20
12 -27 21 -18 21 9 0 29 -10 43 -21z m3174 -28 c28 -18 52 -35 52 -38 0 -3
-71 -2 -157 2 -92 4 -217 2 -299 -4 l-142 -11 -78 37 -79 38 80 6 c44 3 190 6
325 5 l246 -1 52 -34z m-1183 13 c-72 -56 -251 -122 -348 -129 l-72 -5 65 21
c36 11 133 44 215 74 171 61 167 60 140 39z m1958 -12 c-18 -16 -59 -39 -90
-52 -32 -13 -111 -50 -176 -82 -66 -33 -126 -57 -135 -55 -20 4 227 129 304
153 29 9 68 27 86 40 45 31 50 29 11 -4z m-3978 -27 c39 -19 84 -46 100 -61
l30 -26 -35 22 c-62 38 -163 82 -199 86 -32 4 -30 2 17 -15 64 -24 198 -94
232 -122 14 -12 -22 4 -80 33 -58 30 -135 65 -173 78 l-67 24 32 12 c41 14 56
11 143 -31z m4000 7 c-11 -10 -21 -24 -23 -32 -2 -8 -15 -24 -29 -35 -32 -25
-243 -135 -258 -135 -20 1 31 32 146 90 63 32 121 65 128 74 14 17 2 23 -14 7
-6 -5 -86 -48 -180 -96 -109 -56 -162 -79 -147 -64 12 13 104 65 205 115 205
102 199 100 172 76z m-4136 -18 c77 -30 250 -115 257 -126 5 -8 -115 40 -172
70 -21 11 -64 31 -94 43 -102 43 -94 54 9 13z m2706 -7 c33 -15 56 -27 50 -27
-5 0 -82 -7 -170 -15 -398 -38 -479 -42 -505 -25 -8 5 -12 12 -9 15 6 5 216
49 349 73 98 18 217 9 285 -21z m-2681 -42 c75 -35 136 -67 136 -70 0 -3 -17
2 -37 11 -21 8 -70 29 -109 45 -60 25 -150 79 -132 79 3 0 67 -29 142 -65z
m3421 16 c57 -24 127 -73 117 -83 -6 -6 -118 -8 -278 -6 l-269 4 -95 46 -95
46 40 5 c89 10 550 1 580 -12z m-1432 -18 c-57 -39 -138 -69 -173 -62 l-35 6
35 2 c19 1 69 17 110 36 84 38 95 41 63 18z m-720 -20 c7 -39 1 -40 -11 -4 -6
17 -7 31 -3 31 5 0 11 -12 14 -27z m1565 0 c34 -15 62 -31 62 -35 0 -4 -7 -5
-15 -2 -8 3 -151 -2 -318 -11 -233 -13 -314 -14 -346 -5 -49 13 -45 30 7 30
35 0 285 23 427 39 110 13 116 13 183 -16z m-2830 -13 c3 0 3 -2 0 -5 -5 -6
-78 22 -78 30 0 3 16 -2 36 -10 20 -8 39 -15 42 -15z m1331 -243 c45 -92 91
-192 102 -222 11 -30 23 -55 26 -55 19 0 -68 207 -162 385 -43 81 -79 165 -71
165 1 0 48 -91 104 -202 101 -204 147 -319 138 -344 -3 -7 -2 -14 2 -16 11 -5
85 -149 79 -154 -3 -3 -24 30 -48 73 -23 43 -50 89 -59 103 -10 14 -23 43 -30
65 -7 22 -57 129 -111 237 -55 109 -99 208 -99 220 0 15 9 3 24 -32 13 -30 60
-130 105 -223z m55 84 c31 -63 55 -116 53 -118 -8 -8 -126 236 -131 272 l-6
40 13 -40 c8 -22 40 -91 71 -154z m-34 131 c7 -20 25 -57 39 -82 25 -41 36
-67 56 -125 10 -32 -95 176 -110 218 -8 21 -10 35 -5 32 5 -3 14 -22 20 -43z
m2710 33 c0 -7 -78 -45 -92 -44 -7 0 10 11 37 24 56 27 55 27 55 20z m-2664
-74 c13 -28 21 -51 19 -51 -6 0 -43 65 -50 90 -11 37 4 18 31 -39z m32 -2 c13
-28 21 -53 18 -56 -3 -3 -10 6 -15 21 -6 14 -18 40 -26 56 -9 17 -12 30 -8 30
5 0 19 -23 31 -51z m77 -101 c5 -31 4 -30 -8 7 -8 22 -26 58 -40 79 -15 21
-27 46 -27 55 0 26 70 -104 75 -141z m2526 132 c-13 -11 -28 -20 -35 -20 -6 0
3 9 19 20 38 25 47 25 16 0z m-2793 -85 c15 -33 56 -115 90 -183 35 -68 62
-126 59 -129 -4 -4 -195 370 -205 402 -9 29 33 -38 56 -90z m62 84 c0 -4 38
-86 84 -181 46 -95 92 -198 102 -228 9 -30 28 -81 41 -114 13 -32 22 -60 20
-63 -6 -5 -57 112 -57 130 0 17 -53 143 -94 223 -14 29 -26 54 -26 57 0 3 -22
46 -48 95 -31 56 -44 89 -35 89 7 0 13 -4 13 -8z m199 -39 c12 -22 21 -44 21
-48 0 -9 -49 70 -50 81 0 16 9 5 29 -33z m301 30 c0 -5 -22 -10 -49 -10 -28 0
-53 5 -56 10 -4 6 15 10 49 10 31 0 56 -4 56 -10z m280 1 c37 -7 26 -9 -55 -9
-64 0 -91 3 -75 8 32 10 74 11 130 1z m945 -31 l80 -35 -355 -6 c-195 -3 -377
-9 -405 -13 -49 -7 -51 -6 -90 33 l-39 41 114 1 c63 1 158 5 210 9 52 4 165 7
250 6 153 -2 156 -2 235 -36z m502 17 c-24 -15 -195 -66 -245 -73 -45 -6 -61
-2 -141 32 -50 22 -91 41 -91 44 0 3 110 5 244 5 134 0 239 -3 233 -8z m423
-7 c-19 -11 -42 -19 -50 -19 -8 0 1 8 20 19 19 11 42 19 50 19 8 0 -1 -8 -20
-19z m-346 -11 c-10 -11 -28 -25 -39 -30 -11 -6 -4 4 15 21 40 35 52 39 24 9z
m-2034 -102 c17 -44 29 -82 27 -84 -2 -2 -22 43 -45 99 -22 57 -34 94 -27 84
8 -10 28 -55 45 -99z m20 22 c16 -45 28 -84 26 -86 -4 -4 -66 158 -66 172 0
19 12 -7 40 -86z m-391 45 c12 -19 16 -32 11 -29 -11 7 -43 65 -36 65 2 0 13
-16 25 -36z m997 21 c38 -29 -1 -37 -153 -31 -147 6 -217 20 -178 36 11 5 86
9 166 9 114 1 149 -2 165 -14z m-583 -55 c4 -21 3 -29 -2 -20 -4 8 -11 31 -14
50 -4 21 -3 29 2 20 4 -8 11 -31 14 -50z m1875 36 c-31 -28 -119 -56 -172 -56
-49 0 -46 17 5 25 23 4 71 18 108 30 84 30 92 30 59 1z m115 -20 c-32 -18 -71
-40 -88 -51 l-30 -19 25 27 c32 36 119 87 138 80 8 -4 -8 -18 -45 -37z m97 19
c0 -2 -19 -14 -42 -26 -24 -12 -76 -42 -116 -66 -40 -25 -75 -43 -78 -40 -8 8
92 71 169 108 67 31 67 31 67 24z m-2042 -30 c-3 -3 -9 2 -12 12 -6 14 -5 15
5 6 7 -7 10 -15 7 -18z m380 4 c129 -5 239 -12 243 -15 45 -28 -83 -32 -291
-9 -224 24 -242 27 -228 36 7 5 19 6 27 4 8 -3 120 -10 249 -16z m1117 -11
c39 -10 39 -11 15 -20 -34 -13 -531 -23 -701 -13 -124 6 -172 15 -158 29 20
21 767 24 844 4z m795 9 c-14 -6 -77 -39 -142 -74 -93 -51 -190 -92 -217 -93
-2 0 12 15 32 34 19 18 75 54 124 78 139 72 151 66 15 -8 -68 -36 -121 -69
-118 -71 3 -3 72 28 153 70 81 42 155 76 163 76 8 0 4 -5 -10 -12z m-2385
-125 c-4 -5 -45 105 -44 121 0 7 11 -17 24 -53 13 -35 22 -66 20 -68z m-118
96 c-3 -8 -6 -5 -6 6 -1 11 2 17 5 13 3 -3 4 -12 1 -19z m60 -85 c-3 -2 -12
15 -22 39 -28 69 -27 78 0 19 14 -29 24 -55 22 -58z m413 83 c69 -8 182 -18
252 -22 89 -4 131 -11 139 -20 13 -16 20 -16 -111 -14 -110 1 -215 13 -355 42
-103 21 -166 44 -90 34 22 -3 96 -12 165 -20z m1870 19 c0 -7 -110 -61 -140
-69 -18 -5 -15 -1 10 12 19 10 51 28 70 40 33 21 60 28 60 17z m186 -4 c-4 -5
-44 -27 -90 -49 -46 -22 -101 -51 -123 -64 -47 -30 -173 -81 -181 -73 -3 3 14
13 39 22 24 10 114 52 199 94 173 87 163 82 156 70z m-536 -17 c-21 -25 -50
-36 -76 -30 -39 10 -28 24 29 34 28 5 54 10 56 11 2 0 -2 -6 -9 -15z m-1585
-32 c108 -23 296 -42 413 -42 60 0 72 -3 72 -17 0 -35 -362 2 -554 57 -68 19
-105 38 -56 28 14 -3 70 -15 125 -26z m1425 8 c0 -10 -21 -15 -195 -41 -101
-15 -211 -22 -392 -26 -288 -6 -315 -3 -331 33 -20 42 -16 47 29 40 53 -8 708
-6 774 2 57 8 115 4 115 -8z m-1806 -40 c5 -17 4 -20 -2 -10 -5 8 -13 26 -16
40 -5 17 -4 20 2 10 5 -8 13 -26 16 -40z m2092 16 c-42 -36 -96 -71 -96 -62 0
7 121 96 130 96 3 -1 -12 -16 -34 -34z m-2306 -18 c0 -7 66 -130 104 -193 l18
-30 -20 25 c-23 27 -115 192 -125 225 -7 20 -7 20 8 1 8 -11 15 -23 15 -28z
m269 2 c11 -24 11 -24 -3 -6 -9 11 -16 24 -16 30 0 12 5 7 19 -24z m1818 -1
c-67 -38 -475 -98 -720 -106 -164 -5 -179 -5 -198 13 -54 49 -55 49 204 50
202 0 276 4 447 27 255 33 263 34 274 28 5 -2 2 -8 -7 -12z m553 17 c0 -2 -43
-29 -95 -60 -89 -52 -140 -74 -210 -90 -49 -12 -15 9 45 27 30 9 98 41 150 71
92 52 110 61 110 52z m-330 -30 c0 -2 -17 -16 -37 -31 l-38 -27 33 31 c30 29
42 37 42 27z m307 -13 c-9 -10 -31 -27 -49 -37 -40 -23 -34 -16 18 24 45 34
54 37 31 13z m-1904 -34 c70 -16 197 -41 282 -54 85 -13 163 -29 173 -35 13
-9 9 -10 -23 -6 -22 4 -83 11 -135 16 -52 5 -184 32 -293 60 -109 27 -204 50
-210 50 -65 -2 337 -101 503 -125 113 -15 194 -38 206 -56 13 -21 -248 19
-431 66 -210 55 -304 92 -289 116 8 13 49 7 217 -32z m1402 22 c-27 -24 -276
-80 -460 -102 -55 -6 -173 -12 -263 -12 -143 0 -165 2 -180 17 -16 17 -14 18
53 12 136 -13 461 19 690 68 120 25 175 31 160 17z m-1869 -135 c26 -72 14
-62 -22 19 -48 108 -51 118 -19 65 15 -25 33 -62 41 -84z m783 114 c63 0 103
-12 89 -26 -8 -7 -228 13 -278 26 -27 7 -16 8 44 5 43 -3 109 -5 145 -5z
m1081 -16 l-25 -15 28 4 c53 8 26 -11 -40 -27 -317 -80 -772 -121 -818 -75
-15 15 -1 17 172 22 233 7 521 48 638 90 53 19 76 20 45 1z m-1544 -19 c80
-36 350 -101 495 -120 68 -9 151 -23 184 -32 33 -8 85 -21 115 -28 50 -12 52
-13 19 -14 -61 -2 -319 29 -409 49 -143 31 -328 89 -401 126 -38 19 -69 36
-69 39 0 8 7 6 66 -20z m-269 -7 c-3 -8 -6 -5 -6 6 -1 11 2 17 5 13 3 -3 4
-12 1 -19z m2233 16 c0 -9 -124 -62 -160 -68 -23 -4 -17 0 20 13 30 10 73 27
95 39 46 24 45 24 45 16z m-1947 -53 c28 -16 120 -48 204 -70 217 -59 432 -91
708 -107 153 -9 112 -21 -75 -23 -157 -1 -329 18 -450 49 -172 44 -355 109
-406 145 -60 43 -52 45 19 6z m1567 24 c0 -12 -99 -47 -196 -70 -259 -61 -494
-85 -599 -61 -34 8 -15 11 125 22 220 17 595 80 668 113 1 0 2 -1 2 -4z
m-1576 -59 c40 -27 135 -60 319 -110 250 -69 486 -87 773 -62 100 9 203 23
230 31 70 21 89 17 26 -5 -29 -11 -132 -29 -230 -41 -305 -37 -592 -16 -852
65 -143 44 -246 87 -285 120 -38 32 -27 33 19 2z m1506 -6 c-168 -67 -301
-100 -401 -100 -78 0 -76 16 3 24 101 12 298 54 373 80 98 34 115 31 25 -4z
m50 -4 c0 -3 -27 -15 -60 -27 -33 -12 -63 -25 -65 -29 -6 -9 59 10 120 34 35
15 38 15 20 1 -28 -22 -111 -46 -175 -50 l-55 -3 50 18 c28 10 73 28 100 39
52 21 65 24 65 17z m-1921 -170 c13 -20 20 -36 18 -36 -9 0 -97 149 -97 163 0
7 13 -11 29 -40 16 -28 38 -67 50 -87z m100 73 c27 -72 71 -222 67 -226 -3 -3
-96 270 -96 281 0 18 10 -1 29 -55z m356 26 c217 -99 624 -162 881 -137 265
26 393 50 480 88 31 14 58 23 60 21 3 -2 -24 -16 -58 -31 -134 -58 -399 -95
-694 -97 -190 -1 -219 1 -319 24 -61 14 -148 39 -195 55 -127 44 -270 112
-236 112 3 0 39 -16 81 -35z m-337 -6 c-3 -8 -7 -3 -11 10 -4 17 -3 21 5 13 5
-5 8 -16 6 -23z m492 -91 c266 -90 648 -125 891 -83 100 17 131 15 47 -3 -203
-43 -477 -42 -693 2 -139 29 -281 74 -357 112 -57 29 -64 42 -10 18 20 -10 75
-30 122 -46z m813 55 c-7 -2 -19 -2 -25 0 -7 3 -2 5 12 5 14 0 19 -2 13 -5z
m462 -13 c-3 -5 -12 -10 -18 -10 -7 0 -6 4 3 10 19 12 23 12 15 0z m-1715
-101 c17 -56 29 -103 27 -105 -2 -2 -16 38 -32 88 -15 51 -30 99 -33 106 -2 6
-2 12 1 12 3 0 20 -45 37 -101z m1277 95 c-3 -3 -12 -4 -19 -1 -8 3 -5 6 6 6
11 1 17 -2 13 -5z m170 0 c-3 -3 -12 -4 -19 -1 -8 3 -5 6 6 6 11 1 17 -2 13
-5z m186 -30 c-84 -40 -332 -84 -513 -90 -85 -4 -170 -2 -188 2 -22 6 14 9
120 10 196 1 511 48 584 88 16 8 34 15 39 15 6 0 -14 -12 -42 -25z m-1689 -64
c5 -20 3 -19 -8 5 -7 17 -16 41 -20 55 -5 20 -3 19 8 -5 7 -16 16 -41 20 -55z
m1736 65 c0 -9 -103 -55 -120 -55 -8 0 11 11 43 24 33 14 61 27 65 30 7 7 12
8 12 1z m-1110 -83 c137 -38 193 -45 425 -51 l230 -6 -140 -9 c-113 -7 -166
-6 -278 8 -130 16 -291 54 -326 77 -14 9 -14 10 -1 6 9 -3 49 -14 90 -25z
m950 18 c-14 -4 -38 -8 -55 -8 -29 1 -29 1 5 8 50 11 83 11 50 0z m-1481 -40
c0 -10 -3 -8 -9 5 -12 27 -12 43 0 25 5 -8 9 -22 9 -30z m108 -204 c-3 -10
-68 194 -66 209 0 6 16 -37 35 -95 18 -58 32 -109 31 -114z m1290 208 c-3 -3
-12 -4 -19 -1 -8 3 -5 6 6 6 11 1 17 -2 13 -5z m-44 -11 c-7 -2 -19 -2 -25 0
-7 3 -2 5 12 5 14 0 19 -2 13 -5z m-1314 -43 c0 -10 -3 -8 -9 5 -12 27 -12 43
0 25 5 -8 9 -22 9 -30z m1264 33 c-7 -2 -19 -2 -25 0 -7 3 -2 5 12 5 14 0 19
-2 13 -5z m-60 -10 c-7 -2 -19 -2 -25 0 -7 3 -2 5 12 5 14 0 19 -2 13 -5z
m-1226 -45 c-3 -8 -6 -5 -6 6 -1 11 2 17 5 13 3 -3 4 -12 1 -19z m1120 6 c-3
-3 -12 -4 -19 -1 -8 3 -5 6 6 6 11 1 17 -2 13 -5z m-1090 -26 c-3 -8 -6 -5 -6
6 -1 11 2 17 5 13 3 -3 4 -12 1 -19z m981 15 c-32 -2 -86 -2 -120 0 -35 2 -9
3 57 3 66 0 94 -1 63 -3z m-1030 -44 c-3 -8 -7 -3 -11 10 -4 17 -3 21 5 13 5
-5 8 -16 6 -23z m53 -66 c16 -48 27 -89 25 -91 -2 -2 -16 34 -31 80 -15 46
-29 90 -31 98 -3 8 -2 11 2 7 4 -4 20 -46 35 -94z m43 -54 c3 -19 -6 0 -19 41
-14 41 -25 80 -24 85 1 16 36 -88 43 -126z m63 29 c-3 -8 -6 -5 -6 6 -1 11 2
17 5 13 3 -3 4 -12 1 -19z m-40 -30 c-3 -8 -6 -5 -6 6 -1 11 2 17 5 13 3 -3 4
-12 1 -19z m98 -200 c19 -87 64 -248 100 -360 35 -111 63 -204 61 -206 -4 -3
-62 169 -116 343 -28 91 -101 409 -99 431 1 17 19 -50 54 -208z m-88 160 c-3
-8 -6 -5 -6 6 -1 11 2 17 5 13 3 -3 4 -12 1 -19z m10 -60 c-3 -8 -6 -5 -6 6
-1 11 2 17 5 13 3 -3 4 -12 1 -19z m-7 -43 c0 -5 -5 -3 -10 5 -5 8 -10 20 -10
25 0 6 5 3 10 -5 5 -8 10 -19 10 -25z"/>
<path d="M8527 5233 c-4 -3 -7 -11 -7 -17 0 -6 5 -5 12 2 6 6 9 14 7 17 -3 3
-9 2 -12 -2z"/>
</g>
</svg>
